[Header]
FileType HTR
DataType HTRS
FileVersion 1
NumSegments 64
NumFrames 4
DataFrameRate 24
EulerRotationOrder ZYX
CalibrationUnits mm
RotationUnits Degrees
GlobalAxisofGravity Y
BoneLengthAxis Y
ScaleFactor 1.0
[SegmentNames&Hierarchy]
Hips	GLOBAL
Spine	Hips
Spine1	Spine
Spine2	Spine1
Neck	Spine2
Head	Neck
LeftEye	Head
RightEye	Head
LeftShoulder	Spine2
LeftArm	LeftShoulder
LeftForeArm	LeftArm
LeftHand	LeftForeArm
LeftHandThumb1	LeftHand
LeftHandThumb2	LeftHandThumb1
LeftHandThumb3	LeftHandThumb2
LeftHandThumb4	LeftHandThumb3
LeftHandIndex1	LeftHand
LeftHandIndex2	LeftHandIndex1
LeftHandIndex3	LeftHandIndex2
LeftHandIndex4	LeftHandIndex3
LeftHandMiddle1	LeftHand
LeftHandMiddle2	LeftHandMiddle1
LeftHandMiddle3	LeftHandMiddle2
LeftHandMiddle4	LeftHandMiddle3
LeftHandRing1	LeftHand
LeftHandRing2	LeftHandRing1
LeftHandRing3	LeftHandRing2
LeftHandRing4	LeftHandRing3
LeftHandPinky1	LeftHand
LeftHandPinky2	LeftHandPinky1
LeftHandPinky3	LeftHandPinky2
LeftHandPinky4	LeftHandPinky3
RightShoulder	Spine2
RightArm	RightShoulder
RightForeArm	RightArm
RightHand	RightForeArm
RightHandPinky1	RightHand
RightHandPinky2	RightHandPinky1
RightHandPinky3	RightHandPinky2
RightHandPinky4	RightHandPinky3
RightHandRing1	RightHand
RightHandRing2	RightHandRing1
RightHandRing3	RightHandRing2
RightHandRing4	RightHandRing3
RightHandMiddle1	RightHand
RightHandMiddle2	RightHandMiddle1
RightHandMiddle3	RightHandMiddle2
RightHandMiddle4	RightHandMiddle3
RightHandIndex1	RightHand
RightHandIndex2	RightHandIndex1
RightHandIndex3	RightHandIndex2
RightHandIndex4	RightHandIndex3
RightHandThumb1	RightHand
RightHandThumb2	RightHandThumb1
RightHandThumb3	RightHandThumb2
RightHandThumb4	RightHandThumb3
LeftUpLeg	Hips
LeftLeg	LeftUpLeg
LeftFoot	LeftLeg
LeftToeBase	LeftFoot
RightUpLeg	Hips
RightLeg	RightUpLeg
RightFoot	RightLeg
RightToeBase	RightFoot
[BasePosition]
Hips	0	0	0	0	0	0	1
Spine	0	0	0	0	0	0	1
Spine1	0	0	0	0	0	0	1
Spine2	0	0	0	0	0	0	1
Neck	0	0	0	0	0	0	1
Head	0	0	0	0	0	0	1
LeftEye	0	0	0	0	0	0	1
RightEye	0	0	0	0	0	0	1
LeftShoulder	0	0	0	0	0	0	1
LeftArm	0	0	0	0	0	0	1
LeftForeArm	0	0	0	0	0	0	1
LeftHand	0	0	0	0	0	0	1
LeftHandThumb1	0	0	0	0	0	0	1
LeftHandThumb2	0	0	0	0	0	0	1
LeftHandThumb3	0	0	0	0	0	0	1
LeftHandThumb4	0	0	0	0	0	0	1
LeftHandIndex1	0	0	0	0	0	0	1
LeftHandIndex2	0	0	0	0	0	0	1
LeftHandIndex3	0	0	0	0	0	0	1
LeftHandIndex4	0	0	0	0	0	0	1
LeftHandMiddle1	0	0	0	0	0	0	1
LeftHandMiddle2	0	0	0	0	0	0	1
LeftHandMiddle3	0	0	0	0	0	0	1
LeftHandMiddle4	0	0	0	0	0	0	1
LeftHandRing1	0	0	0	0	0	0	1
LeftHandRing2	0	0	0	0	0	0	1
LeftHandRing3	0	0	0	0	0	0	1
LeftHandRing4	0	0	0	0	0	0	1
LeftHandPinky1	0	0	0	0	0	0	1
LeftHandPinky2	0	0	0	0	0	0	1
LeftHandPinky3	0	0	0	0	0	0	1
LeftHandPinky4	0	0	0	0	0	0	1
RightShoulder	0	0	0	0	0	0	1
RightArm	0	0	0	0	0	0	1
RightForeArm	0	0	0	0	0	0	1
RightHand	0	0	0	0	0	0	1
RightHandPinky1	0	0	0	0	0	0	1
RightHandPinky2	0	0	0	0	0	0	1
RightHandPinky3	0	0	0	0	0	0	1
RightHandPinky4	0	0	0	0	0	0	1
RightHandRing1	0	0	0	0	0	0	1
RightHandRing2	0	0	0	0	0	0	1
RightHandRing3	0	0	0	0	0	0	1
RightHandRing4	0	0	0	0	0	0	1
RightHandMiddle1	0	0	0	0	0	0	1
RightHandMiddle2	0	0	0	0	0	0	1
RightHandMiddle3	0	0	0	0	0	0	1
RightHandMiddle4	0	0	0	0	0	0	1
RightHandIndex1	0	0	0	0	0	0	1
RightHandIndex2	0	0	0	0	0	0	1
RightHandIndex3	0	0	0	0	0	0	1
RightHandIndex4	0	0	0	0	0	0	1
RightHandThumb1	0	0	0	0	0	0	1
RightHandThumb2	0	0	0	0	0	0	1
RightHandThumb3	0	0	0	0	0	0	1
RightHandThumb4	0	0	0	0	0	0	1
LeftUpLeg	0	0	0	0	0	0	1
LeftLeg	0	0	0	0	0	0	1
LeftFoot	0	0	0	0	0	0	1
LeftToeBase	0	0	0	0	0	0	1
RightUpLeg	0	0	0	0	0	0	1
RightLeg	0	0	0	0	0	0	1
RightFoot	0	0	0	0	0	0	1
RightToeBase	0	0	0	0	0	0	1
[Hips]
20	6.893192291	1027.533447	-19.03886414	-25.38672638	77.91418457	-21.90433502	1.0
21	11.36728764	1027.136841	-10.61068916	-31.04486847	80.26371765	-27.57527924	1.0
22	14.44032764	1026.723877	-4.303785324	-36.08937073	81.99359894	-32.61405182	1.0
23	14.86629295	1026.577026	-3.022607565	-37.61520004	82.32188416	-34.10713959	1.0
[Spine]
20	0	101.8159943	1.315000057	3.70361495	0.8067762852	1.654636979	1.0
21	0	101.8159943	1.315000057	3.556225777	0.9691925645	2.479143858	1.0
22	0	101.8159943	1.315000057	3.433040142	1.183033824	3.353845358	1.0
23	0	101.8159943	1.315000057	3.376552582	1.36971283	3.9332726	1.0
[Spine1]
20	0	100.8349991	-10.00800037	1.24988687	0.02312515862	2.423712969	1.0
21	0	100.8349991	-10.00800037	1.219432235	0.08048918843	2.1329813	1.0
22	0	100.8349991	-10.00800037	1.188506722	0.1837928146	1.875843287	1.0
23	0	100.8349991	-10.00800037	1.168158531	0.3238303959	1.699005127	1.0
[Spine2]
20	0	91	-13.73399925	1.233336091	0.007542577572	1.858198643	1.0
21	0	91	-13.73399925	1.197039008	0.09542174637	1.87596488	1.0
22	0	91	-13.73399925	1.162004232	0.2142860442	1.83034277	1.0
23	0	91	-13.73399925	1.142669439	0.3492259085	1.702079892	1.0
[Neck]
20	0	166.7169952	-25.16200066	5.632188797	0.371612668	0.5251631141	1.0
21	0	166.7169952	-25.16200066	5.62348175	0.1097243726	0.4883794487	1.0
22	0	166.7169952	-25.16200066	5.626169205	-0.06691940874	0.4506962001	1.0
23	0	166.7169952	-25.16200066	5.625737667	-0.1222597137	0.4452456236	1.0
[Head]
20	0	96.17900085	16.84999847	-7.050620079	4.383015633	-1.616535068	1.0
21	0	96.17900085	16.84999847	-7.296526909	2.868740082	-0.9695824385	1.0
22	0	96.17900085	16.84999847	-7.482671261	1.734392166	-0.4746753275	1.0
23	0	96.17900085	16.84999847	-7.565248013	1.353949308	-0.2598703802	1.0
[LeftEye]
20	30.6760006	64.09500122	92.83599854	0	0	0	1.0
21	30.6760006	64.09500122	92.83599854	0	0	0	1.0
22	30.6760006	64.09500122	92.83599854	0	0	0	1.0
23	30.6760006	64.09500122	92.83599854	0	0	0	1.0
[RightEye]
20	-30.6760006	64.09500122	92.83499908	0	0	0	1.0
21	-30.6760006	64.09500122	92.83499908	0	0	0	1.0
22	-30.6760006	64.09500122	92.83499908	0	0	0	1.0
23	-30.6760006	64.09500122	92.83499908	0	0	0	1.0
[LeftShoulder]
20	45.70400238	109.4599991	-26.28000069	6.081262589	-10.69086933	-15.79215717	1.0
21	45.70400238	109.4599991	-26.28000069	5.575645447	-13.37089157	-14.61761189	1.0
22	45.70400238	109.4599991	-26.28000069	5.115694046	-15.77227879	-13.63236618	1.0
23	45.70400238	109.4599991	-26.28000069	4.903662682	-16.79106903	-13.2045536	1.0
[LeftArm]
20	105.923996	-5.24600029	-22.32099915	22.64569855	-1.488870025	-67.68556976	1.0
21	105.923996	-5.24600029	-22.32099915	21.66887093	-2.130895615	-69.21777344	1.0
22	105.923996	-5.24600029	-22.32099915	20.76645851	-2.775902271	-70.49768066	1.0
23	105.923996	-5.24600029	-22.32099915	20.12803459	-3.088285446	-71.00371552	1.0
[LeftForeArm]
20	278.414978	-0.0009999999311	0	1.17038428e-06	-6.389244556	-0.000201648887	1.0
21	278.414978	-0.0009999999311	0	1.285714916e-06	-4.124968529	-0.0002029874013	1.0
22	278.414978	-0.0009999999311	0	1.484612199e-06	-2.20564723	-0.0002030262112	1.0
23	278.414978	-0.0009999999311	0	4.027422165e-06	-1.459365368	-0.0001995275816	1.0
[LeftHand]
20	283.2879944	0	0	-36.42470932	-3.419332266	3.222231865	1.0
21	283.2879944	0	0	-34.7234993	-3.972285271	-0.6449609995	1.0
22	283.2879944	0	0	-33.26247025	-4.479642391	-3.765292883	1.0
23	283.2879944	0	0	-32.95536804	-4.523313046	-4.439680576	1.0
[LeftHandThumb1]
20	24.6609993	-15.75	26.8239994	-0.4889881611	2.201389551	4.818526268	1.0
21	24.6609993	-15.75	26.8239994	-0.4889881611	2.201389551	4.818526268	1.0
22	24.6609993	-15.75	26.8239994	-0.4889881611	2.201389551	4.818526268	1.0
23	24.6609993	-15.75	26.8239994	-0.4889881611	2.201389551	4.818526268	1.0
[LeftHandThumb2]
20	32.29800034	-18.64699936	18.64699936	18.59740448	18.8150959	22.3837986	1.0
21	32.29800034	-18.64699936	18.64699936	19.04197693	19.22644424	22.6958065	1.0
22	32.29800034	-18.64699936	18.64699936	19.53475189	19.65712929	23.0303688	1.0
23	32.29800034	-18.64699936	18.64699936	19.88581657	19.96443176	23.26737404	1.0
[LeftHandThumb3]
20	26.52600098	-15.31499958	15.31499958	-13.06426144	6.034194946	7.75893259	1.0
21	26.52600098	-15.31499958	15.31499958	-13.09183693	5.867668152	7.832070351	1.0
22	26.52600098	-15.31499958	15.31499958	-13.12244892	5.682177067	7.910585403	1.0
23	26.52600098	-15.31499958	15.31499958	-13.14534664	5.551744461	7.967936039	1.0
[LeftHandThumb4]
20	19.54599953	-11.28499985	11.28499985	0	0	0	1.0
21	19.54599953	-11.28499985	11.28499985	0	0	0	1.0
22	19.54599953	-11.28499985	11.28499985	0	0	0	1.0
23	19.54599953	-11.28499985	11.28499985	0	0	0	1.0
[LeftHandIndex1]
20	91.09299469	-5.170999527	22.60099792	0.1081448272	-1.139356375	-7.144747257	1.0
21	91.09299469	-5.170999527	22.60099792	0.1240012944	-1.077080011	-7.284520149	1.0
22	91.09299469	-5.170999527	22.60099792	0.1408043951	-1.007531881	-7.450126171	1.0
23	91.09299469	-5.170999527	22.60099792	0.148041755	-0.9618679881	-7.594504833	1.0
[LeftHandIndex2]
20	36.76399994	0	0	-0.2669114769	1.74581182	-17.38309288	1.0
21	36.76399994	0	0	-0.2669092417	1.745814085	-17.38309288	1.0
22	36.76399994	0	0	-0.2669041455	1.74581635	-17.38309669	1.0
23	36.76399994	0	0	-0.2669045627	1.745802164	-17.38310242	1.0
[LeftHandIndex3]
20	28.83100128	0	0	-0.05751796067	0.8180036545	-8.045002937	1.0
21	28.83100128	0	0	-0.05752341449	0.8180100918	-8.045000076	1.0
22	28.83100128	0	0	-0.05753019825	0.8180136085	-8.044994354	1.0
23	28.83100128	0	0	-0.05752940103	0.8180066943	-8.044994354	1.0
[LeftHandIndex4]
20	23.92700005	0	0	0	0	0	1.0
21	23.92700005	0	0	0	0	0	1.0
22	23.92700005	0	0	0	0	0	1.0
23	23.92700005	0	0	0	0	0	1.0
[LeftHandMiddle1]
20	95.33399963	0	0	-0.7645215988	2.567305088	-15.27204037	1.0
21	95.33399963	0	0	-0.7739425898	2.547822475	-15.41352463	1.0
22	95.33399963	0	0	-0.784909606	2.5335145	-15.57786369	1.0
23	95.33399963	0	0	-0.7943009734	2.537158012	-15.71750736	1.0
[LeftHandMiddle2]
20	36.98199844	0	0	-0.2658139765	1.742347717	-17.34750366	1.0
21	36.98199844	0	0	-0.2664313912	1.744301081	-17.36756516	1.0
22	36.98199844	0	0	-0.2671077251	1.746447563	-17.38957977	1.0
23	36.98199844	0	0	-0.2675974369	1.748085737	-17.40627289	1.0
[LeftHandMiddle3]
20	29.50900078	0	0	-0.2973219454	1.840139508	-18.35535049	1.0
21	29.50900078	0	0	-0.2979650497	1.84207499	-18.37537575	1.0
22	29.50900078	0	0	-0.2986740172	1.844202399	-18.39739227	1.0
23	29.50900078	0	0	-0.299221158	1.845818162	-18.41413689	1.0
[LeftHandMiddle4]
20	28.3390007	0	0	0	0	0	1.0
21	28.3390007	0	0	0	0	0	1.0
22	28.3390007	0	0	0	0	0	1.0
23	28.3390007	0	0	0	0	0	1.0
[LeftHandRing1]
20	91.04499817	-0.4390000105	-18.65100098	-1.168088555	3.245427847	-20.94559288	1.0
21	91.04499817	-0.4390000105	-18.65100098	-1.172104359	3.310413837	-20.99779701	1.0
22	91.04499817	-0.4390000105	-18.65100098	-1.177696228	3.384200096	-21.0707798	1.0
23	91.04499817	-0.4390000105	-18.65100098	-1.184967041	3.436639309	-21.16631317	1.0
[LeftHandRing2]
20	31.54000092	0	0	-0.383071959	2.080704451	-20.86169815	1.0
21	31.54000092	0	0	-0.3836567402	2.08221674	-20.8775959	1.0
22	31.54000092	0	0	-0.3843432665	2.083993912	-20.89629745	1.0
23	31.54000092	0	0	-0.3849364221	2.085564852	-20.9127903	1.0
[LeftHandRing3]
20	29.37700081	0	0	-0.2802374661	1.787860632	-17.81579971	1.0
21	29.37700081	0	0	-0.2807264626	1.789368749	-17.83132172	1.0
22	29.37700081	0	0	-0.2813029885	1.791145205	-17.8495903	1.0
23	29.37700081	0	0	-0.2818107903	1.792712569	-17.86577225	1.0
[LeftHandRing4]
20	26.47500038	0	0	0	0	0	1.0
21	26.47500038	0	0	0	0	0	1.0
22	26.47500038	0	0	0	0	0	1.0
23	26.47500038	0	0	0	0	0	1.0
[LeftHandPinky1]
20	80.77799988	-4.887000084	-38.06099701	-1.667960644	5.525970936	-26.88112259	1.0
21	80.77799988	-4.887000084	-38.06099701	-1.677325249	5.439660072	-26.9798851	1.0
22	80.77799988	-4.887000084	-38.06099701	-1.686678648	5.365167141	-27.08886147	1.0
23	80.77799988	-4.887000084	-38.06099701	-1.693068981	5.35422802	-27.1653862	1.0
[LeftHandPinky2]
20	36	0	0	-0.2669010162	1.745835304	-17.38306236	1.0
21	36	0	0	-0.2670423388	1.746280313	-17.38775826	1.0
22	36	0	0	-0.2672463357	1.74691534	-17.3944416	1.0
23	36	0	0	-0.267629981	1.748104811	-17.40662384	1.0
[LeftHandPinky3]
20	21.14200211	0	0	-0.2401966304	1.658105493	-16.48379898	1.0
21	21.14200211	0	0	-0.2403212041	1.658539295	-16.48811722	1.0
22	21.14200211	0	0	-0.2405058444	1.659177303	-16.49448776	1.0
23	21.14200211	0	0	-0.2408584654	1.660351872	-16.50661278	1.0
[LeftHandPinky4]
20	19.75699997	0	0	0	0	0	1.0
21	19.75699997	0	0	0	0	0	1.0
22	19.75699997	0	0	0	0	0	1.0
23	19.75699997	0	0	0	0	0	1.0
[RightShoulder]
20	-45.70000076	109.4620056	-26.28000069	5.124703884	14.21370697	15.9187479	1.0
21	-45.70000076	109.4620056	-26.28000069	5.147719383	14.33307648	15.74461174	1.0
22	-45.70000076	109.4620056	-26.28000069	5.169801235	14.44848537	15.5836792	1.0
23	-45.70000076	109.4620056	-26.28000069	5.181169033	14.50999165	15.52806091	1.0
[RightArm]
20	-105.9280014	-5.248000145	-22.32099915	29.127285	1.756590247	61.45743179	1.0
21	-105.9280014	-5.248000145	-22.32099915	29.6661644	2.11853385	62.22084045	1.0
22	-105.9280014	-5.248000145	-22.32099915	30.09193993	2.26939249	62.66003799	1.0
23	-105.9280014	-5.248000145	-22.32099915	30.23854256	2.220944166	62.62534332	1.0
[RightForeArm]
20	-278.414978	0	0	-7.44105364e-07	7.856151104	1.71863594e-05	1.0
21	-278.414978	0	0	3.696619615e-07	7.265949726	8.544828233e-06	1.0
22	-278.414978	0	0	2.514242169e-06	6.838466644	-2.305600901e-06	1.0
23	-278.414978	0	0	0	6.693533897	-4.543693649e-06	1.0
[RightHand]
20	-283.2879944	0	0.0009999999311	-19.94600105	0.5662171841	7.011268616	1.0
21	-283.2879944	0	0.0009999999311	-19.80353737	1.393452406	6.78441906	1.0
22	-283.2879944	0	0.0009999999311	-19.85774803	1.899792433	6.572777748	1.0
23	-283.2879944	0	0.0009999999311	-20.07678413	1.855661511	6.545376301	1.0
[RightHandPinky1]
20	-80.76699829	-4.885000229	-38.06000137	-1.605686426	-4.3639884	26.95961761	1.0
21	-80.76699829	-4.885000229	-38.06000137	-1.581446409	-4.449419975	26.85092926	1.0
22	-80.76699829	-4.885000229	-38.06000137	-1.546403885	-4.571458817	26.69594765	1.0
23	-80.76699829	-4.885000229	-38.06000137	-1.507175565	-4.696124077	26.50587082	1.0
[RightHandPinky2]
20	-36	0	0.0009999999311	-0.2127902955	-1.388971806	17.43898964	1.0
21	-36	0	0.0009999999311	-0.2127848566	-1.388965011	17.43899918	1.0
22	-36	0	0.0009999999311	-0.2127799392	-1.388954043	17.43900108	1.0
23	-36	0	0.0009999999311	-0.212788105	-1.388949037	17.43898392	1.0
[RightHandPinky3]
20	-21.14200211	0	0	-0.1918537915	-1.320386291	16.5337429	1.0
21	-21.14200211	0	0	-0.1918526143	-1.320390105	16.533741	1.0
22	-21.14200211	0	0	-0.1918533295	-1.3204	16.53373718	1.0
23	-21.14200211	0	0	-0.1918575168	-1.320427418	16.5337429	1.0
[RightHandPinky4]
20	-19.75699997	0	0	0	0	0	1.0
21	-19.75699997	0	0	0	0	0	1.0
22	-19.75699997	0	0	0	0	0	1.0
23	-19.75699997	0	0	0	0	0	1.0
[RightHandRing1]
20	-91.03599548	-0.4390000105	-18.65100098	-1.080306292	-2.766761065	21.0106945	1.0
21	-91.03599548	-0.4390000105	-18.65100098	-1.069927692	-2.797585726	20.85328293	1.0
22	-91.03599548	-0.4390000105	-18.65100098	-1.057731509	-2.83609128	20.66813087	1.0
23	-91.03599548	-0.4390000105	-18.65100098	-1.045229912	-2.883115053	20.47790146	1.0
[RightHandRing2]
20	-31.54000092	0	0	-0.3065802157	-1.658433557	20.94509506	1.0
21	-31.54000092	0	0	-0.3065774441	-1.65844512	20.94510269	1.0
22	-31.54000092	0	0	-0.3065727353	-1.658453107	20.9451046	1.0
23	-31.54000092	0	0	-0.3065709174	-1.658432245	20.94508743	1.0
[RightHandRing3]
20	-29.37700081	0	0	-0.224437952	-1.425551176	17.89369392	1.0
21	-29.37700081	0	0	-0.224441573	-1.425531387	17.89369392	1.0
22	-29.37700081	0	0	-0.2244444937	-1.425516367	17.89369392	1.0
23	-29.37700081	0	0	-0.2244376242	-1.425550342	17.89369202	1.0
[RightHandRing4]
20	-26.47500038	0	0	0	0	0	1.0
21	-26.47500038	0	0	0	0	0	1.0
22	-26.47500038	0	0	0	0	0	1.0
23	-26.47500038	0	0	0	0	0	1.0
[RightHandMiddle1]
20	-95.32500458	0	0	-0.7165549994	-2.165319681	15.26206017	1.0
21	-95.32500458	0	0	-0.7134127021	-2.135486603	15.21020603	1.0
22	-95.32500458	0	0	-0.7085596323	-2.105386734	15.1296854	1.0
23	-95.32500458	0	0	-0.7017092705	-2.088302851	15.01524258	1.0
[RightHandMiddle2]
20	-36.98199844	0	0	-0.2138960212	-1.392466068	17.46479988	1.0
21	-36.98199844	0	0	-0.2137542069	-1.39205265	17.45928383	1.0
22	-36.98199844	0	0	-0.2135210931	-1.391346216	17.450037	1.0
23	-36.98199844	0	0	-0.2132245302	-1.390352607	17.43750572	1.0
[RightHandMiddle3]
20	-29.50900078	0	0	-0.2390918285	-1.472171068	18.47385979	1.0
21	-29.50900078	0	0	-0.238957122	-1.471751213	18.46850204	1.0
22	-29.50900078	0	0	-0.2387277484	-1.471053481	18.45940018	1.0
23	-29.50900078	0	0	-0.2384032756	-1.470128536	18.44693184	1.0
[RightHandMiddle4]
20	-28.3390007	0	0.0009999999311	0	0	0	1.0
21	-28.3390007	0	0.0009999999311	0	0	0	1.0
22	-28.3390007	0	0.0009999999311	0	0	0	1.0
23	-28.3390007	0	0.0009999999311	0	0	0	1.0
[RightHandIndex1]
20	-91.08300018	-5.167999744	22.60099792	0.142790854	1.219975352	7.510014057	1.0
21	-91.08300018	-5.167999744	22.60099792	0.151292339	1.239537716	7.300882339	1.0
22	-91.08300018	-5.167999744	22.60099792	0.1651353091	1.255569935	7.055761337	1.0
23	-91.08300018	-5.167999744	22.60099792	0.1884829402	1.251928806	6.825616837	1.0
[RightHandIndex2]
20	-36.76399994	0	0	-0.2129182369	-1.3893857	17.42473412	1.0
21	-36.76399994	0	0	-0.2126915157	-1.388654947	17.41534615	1.0
22	-36.76399994	0	0	-0.2124651819	-1.387928128	17.40600586	1.0
23	-36.76399994	0	0	-0.2124543488	-1.387929082	17.40599442	1.0
[RightHandIndex3]
20	-28.83100128	0	0	-0.04595707729	-0.6515006423	8.070590019	1.0
21	-28.83100128	0	0	-0.04585675895	-0.6507331729	8.061199188	1.0
22	-28.83100128	0	0	-0.04575632885	-0.6499684453	8.051856041	1.0
23	-28.83100128	0	0	-0.04574740306	-0.6499834061	8.051858902	1.0
[RightHandIndex4]
20	-23.92700005	0	0	0	0	0	1.0
21	-23.92700005	0	0	0	0	0	1.0
22	-23.92700005	0	0	0	0	0	1.0
23	-23.92700005	0	0	0	0	0	1.0
[RightHandThumb1]
20	-24.64799881	-15.72700024	26.82600021	-1.658465981	-0.2891423702	-4.221325874	1.0
21	-24.64799881	-15.72700024	26.82600021	-1.658465981	-0.2891423702	-4.221325874	1.0
22	-24.64799881	-15.72700024	26.82600021	-1.658465981	-0.2891423702	-4.221325874	1.0
23	-24.64799881	-15.72700024	26.82600021	-1.658465981	-0.2891423702	-4.221325874	1.0
[RightHandThumb2]
20	-32.29800034	-18.64699936	18.64699936	22.64354324	-23.47807693	-24.09120178	1.0
21	-32.29800034	-18.64699936	18.64699936	22.48246384	-23.62345886	-24.15011597	1.0
22	-32.29800034	-18.64699936	18.64699936	22.32866478	-23.77786446	-24.21788788	1.0
23	-32.29800034	-18.64699936	18.64699936	22.25257683	-23.88967323	-24.282444	1.0
[RightHandThumb3]
20	-26.52600098	-15.31399918	15.31399918	-14.4778223	-6.705262184	-11.37746716	1.0
21	-26.52600098	-15.31399918	15.31399918	-14.47775078	-6.718085766	-11.37649155	1.0
22	-26.52600098	-15.31399918	15.31399918	-14.4797821	-6.733271599	-11.37499619	1.0
23	-26.52600098	-15.31399918	15.31399918	-14.47936821	-6.741293907	-11.37446594	1.0
[RightHandThumb4]
20	-19.54599953	-11.28499985	11.28499985	0	0	0	1.0
21	-19.54599953	-11.28499985	11.28499985	0	0	0	1.0
22	-19.54599953	-11.28499985	11.28499985	0	0	0	1.0
23	-19.54599953	-11.28499985	11.28499985	0	0	0	1.0
[LeftUpLeg]
20	82.07800293	-67.51699829	-15.99599934	-12.66155434	35.032341	5.822494507	1.0
21	82.07800293	-67.51699829	-15.99599934	-12.75632763	35.08996582	6.086000919	1.0
22	82.07800293	-67.51699829	-15.99599934	-12.8155098	35.09040451	6.401373863	1.0
23	82.07800293	-67.51699829	-15.99599934	-12.65399456	35.00136566	6.992098808	1.0
[LeftLeg]
20	0	-443.7049866	2.845999956	17.73434639	-4.51540041	6.391411304	1.0
21	0	-443.7049866	2.845999956	17.62188339	-6.913758278	5.189551353	1.0
22	0	-443.7049866	2.845999956	17.64644432	-8.614492416	4.100989342	1.0
23	0	-443.7049866	2.845999956	17.92733192	-8.62439537	3.112615108	1.0
[LeftFoot]
20	0	-444.2789917	-29.8219986	-1.387104988	-8.713773727	-5.903481483	1.0
21	0	-444.2789917	-29.8219986	-1.255906105	-8.692827225	-5.821910858	1.0
22	0	-444.2789917	-29.8219986	-1.15717721	-8.684921265	-5.662428379	1.0
23	0	-444.2789917	-29.8219986	-1.191717148	-8.7403965	-5.2323246	1.0
[LeftToeBase]
20	0	-87.28699493	107.1060028	-4.928526878	-2.060917541e-05	1.073943707e-07	1.0
21	0	-87.28699493	107.1060028	-4.928527355	-2.013762423e-05	1.076392323e-06	1.0
22	0	-87.28699493	107.1060028	-4.928526878	-1.157896622e-05	2.2616357e-06	1.0
23	0	-87.28699493	107.1060028	-4.928521156	-2.496151637e-06	-4.478619076e-07	1.0
[RightUpLeg]
20	-82.07800293	-67.51699829	-15.99599934	-3.573359013	-10.29085445	3.613224983	1.0
21	-82.07800293	-67.51699829	-15.99599934	-3.211785793	-10.36119652	3.937943459	1.0
22	-82.07800293	-67.51699829	-15.99599934	-2.986037493	-10.4218483	4.20481205	1.0
23	-82.07800293	-67.51699829	-15.99599934	-2.949112654	-10.44256878	4.28049612	1.0
[RightLeg]
20	0	-443.7049866	2.861999989	12.95471859	-4.217441559	-4.234291553	1.0
21	0	-443.7049866	2.861999989	13.4482708	-6.654105663	-4.878810883	1.0
22	0	-443.7049866	2.861999989	13.8771801	-8.464380264	-5.394150257	1.0
23	0	-443.7049866	2.861999989	14.00711346	-8.818653107	-5.51964283	1.0
[RightFoot]
20	0	-444.2770081	-29.83799934	-5.046658516	-1.337118745	3.923958302	1.0
21	0	-444.2770081	-29.83799934	-5.90433979	-1.318465471	3.923348904	1.0
22	0	-444.2770081	-29.83799934	-6.548577309	-1.304938555	3.933755159	1.0
23	0	-444.2770081	-29.83799934	-6.683940411	-1.297760487	3.93450737	1.0
[RightToeBase]
20	0	-87.28699493	107.1060028	-7.282876015	8.998102203e-06	-3.020129043e-06	1.0
21	0	-87.28699493	107.1060028	-7.282875538	1.616207192e-05	-1.36484357e-06	1.0
22	0	-87.28699493	107.1060028	-7.282875061	1.95831235e-05	5.925509754e-07	1.0
23	0	-87.28699493	107.1060028	-7.282878399	1.209765196e-05	-1.686386668e-06	1.0
[EndOfFile]
